<svg width="705" height="224" viewBox="0 0 705 224" fill="none" xmlns="http://www.w3.org/2000/svg">
<g filter="url(#filter0_d_22_72)">
<path d="M214.4 146.674C212.126 154.634 215.172 161.777 211.401 169.146C208.54 174.736 205.055 179.816 201.901 182.118C197.162 185.578 190.367 187.561 185.401 187.646C177.451 187.783 175.281 191.994 168.401 193.175C160.318 194.562 155.598 193.447 147.402 193.175C137.029 192.83 131.275 190.859 120.901 191.175C108.493 191.553 101.58 199.023 89.5044 196.146C82.2838 194.427 79.332 190.558 72.5044 187.646C55.4675 180.381 49.4924 174.71 45.0044 163.646C40.3779 152.241 31.1622 149.043 27.9015 137.175C23.5634 121.384 36.4267 105.307 33.9005 95.6746C27.8856 72.7389 36.3768 66.0325 50.0044 58.1464C50.0044 58.1464 60.3305 52.0979 66.9017 48.1464C77.7166 41.6431 82.0489 33.7613 94.4006 31.1746C101.854 29.6137 106.373 32.3239 113.901 31.1741C119.749 30.2809 122.617 27.7272 128.504 27.1464C142.113 25.8038 148.644 36.9377 161.902 37.6746C174.771 38.3899 188.457 39.3938 195.401 48.1464C202.344 56.899 205.683 60.8974 211.401 69.6746C217.746 79.4162 223.29 84.3456 225.901 95.6746C228.005 104.808 227.141 110.384 225.901 119.675C224.332 131.428 217.658 135.272 214.4 146.674Z" fill="white"/>
<path d="M98.5044 90.6458C100.783 92.4439 103.427 92.801 104.004 95.6458C104.199 96.6026 104.507 97.3086 104.004 98.1458C103.369 99.2047 102.238 99.201 101.004 99.1458C99.4317 99.0754 98.8478 97.9664 97.5044 97.1458C94.8696 95.5365 94.0419 92.0935 91.0044 92.6458C89.0833 92.9951 88.1546 94.0679 87.0044 95.6458C86.1284 96.8474 86.3278 97.9075 85.5044 99.1458C84.1197 101.228 82.9676 102.715 80.5044 103.146C78.0714 103.571 76.5142 102.581 74.5044 101.146C72.3432 99.6021 71.9302 97.5121 72.5045 95.6458C73.0788 93.7795 72.8585 93.6965 74.5044 92.6458C78.4165 90.1483 80.9862 89.208 85.5044 88.1458C88.5693 87.4252 90.4931 86.2262 93.5044 87.1458C95.7839 87.8419 96.6332 89.1694 98.5044 90.6458Z" fill="black"/>
<path d="M156.739 92.1461C159.018 93.9442 160.504 94.146 162.004 96.6461C162.507 97.4833 163.007 98.8088 162.504 99.646C162.111 100.302 161.472 100.201 160.239 100.146C158.666 100.076 158.082 98.9667 156.739 98.1461C154.104 96.5368 153.276 93.0939 150.239 93.6461C148.318 93.9954 147.389 95.0683 146.239 96.6461C145.363 97.8478 145.562 98.9079 144.739 100.146C143.354 102.228 142.202 103.715 139.739 104.146C137.306 104.572 135.749 103.582 133.739 102.146C131.578 100.602 131.164 98.5124 131.739 96.6461C132.313 94.7799 132.093 94.6968 133.739 93.6461C137.651 91.1487 140.221 90.2083 144.739 89.1461C147.804 88.4256 149.493 88.2265 152.504 89.1461C154.784 89.8422 154.868 90.6697 156.739 92.1461Z" fill="black"/>
<path d="M116.505 121.146C113.713 120.992 110.919 120.235 109.505 122.646C108.186 124.893 108.848 127.685 111.005 129.146C112.783 130.351 114.357 129.146 116.505 129.146C119.629 129.146 121.56 130.19 124.505 129.146C127.008 128.258 130.601 127.734 130.005 125.146C129.724 123.928 129.041 123.345 128.005 122.646C126.062 121.336 124.326 122.965 122.005 122.646C119.799 122.343 118.727 121.269 116.505 121.146Z" fill="black"/>
</g>
<path d="M323.175 17.3295C323.175 14.5153 324.69 13 327.505 13H352.327C369.104 13 378.81 23.3548 378.81 38.0392C378.81 52.7957 368.924 62.9341 351.93 62.9341H338.797V82.5614C338.797 85.3756 337.282 86.8909 334.468 86.8909H327.505C324.69 86.8909 323.175 85.3756 323.175 82.5614V17.3295ZM338.797 50.4145H349.405C358.353 50.4145 362.718 45.3634 362.718 38.0392C362.718 30.679 358.353 25.7722 349.333 25.7722H338.797V50.4145Z" fill="white"/>
<path d="M404.58 82.5614C404.58 85.3756 403.064 86.8909 400.25 86.8909H393.287C390.472 86.8909 388.957 85.3756 388.957 82.5614V17.3295C388.957 14.5153 390.472 13 393.287 13H400.25C403.064 13 404.58 14.5153 404.58 17.3295V82.5614Z" fill="white"/>
<path d="M417.433 17.3295C417.433 14.5153 418.948 13 421.762 13H462.893C465.707 13 467.223 14.5153 467.223 17.3295V21.5509C467.223 24.3651 465.707 25.8804 462.893 25.8804H433.055V43.4872H460.331C463.146 43.4872 464.661 45.0026 464.661 47.8168V52.0381C464.661 54.8523 463.146 56.3676 460.331 56.3676H433.055V74.0105H463.037C465.852 74.0105 467.367 75.5259 467.367 78.3401V82.5614C467.367 85.3756 465.852 86.8909 463.037 86.8909H421.762C418.948 86.8909 417.433 85.3756 417.433 82.5614V17.3295Z" fill="white"/>
<path d="M541.447 82.5614C541.447 85.3756 539.932 86.8909 537.118 86.8909H531.273C528.964 86.8909 527.376 86.0972 526.041 84.1489L495.807 40.3844H495.265V82.5614C495.265 85.3756 493.75 86.8909 490.936 86.8909H483.973C481.158 86.8909 479.643 85.3756 479.643 82.5614V17.3295C479.643 14.5153 481.158 13 483.973 13H489.998C492.307 13 493.931 13.8298 495.229 15.742L525.248 59.4705H525.897V17.3295C525.897 14.5153 527.412 13 530.227 13H537.118C539.932 13 541.447 14.5153 541.447 17.3295V82.5614Z" fill="white"/>
<path d="M569.977 82.5614C569.977 85.3756 568.462 86.8909 565.648 86.8909H558.684C555.87 86.8909 554.355 85.3756 554.355 82.5614V17.3295C554.355 14.5153 555.87 13 558.684 13H565.648C568.462 13 569.977 14.5153 569.977 17.3295V82.5614Z" fill="white"/>
<path d="M369.083 157.152C366.522 157.152 365.439 155.889 364.285 153.544C362.445 149.972 358.404 147.952 352.667 147.952C345.018 147.952 340.797 151.452 340.797 156.214C340.689 161.518 346.064 163.899 352.487 165.378L359.125 166.966C371.97 169.852 381.242 176.383 381.278 188.686C381.242 202.216 370.635 210.839 352.595 210.839C336.431 210.839 325.571 204.128 323.262 191.139C322.757 188.253 324.489 186.593 327.375 186.593H334.05C336.648 186.593 337.802 187.892 338.776 190.381C340.725 195.252 345.812 197.742 352.414 197.742C360.352 197.742 365.475 194.062 365.511 188.65C365.475 183.671 361.001 181.362 352.956 179.413L344.91 177.393C332.426 174.398 324.741 168.156 324.778 157.26C324.705 143.839 336.576 134.891 352.775 134.891C367.243 134.891 377.382 141.927 379.727 152.606C380.376 155.493 378.608 157.152 375.686 157.152H369.083Z" fill="white"/>
<path d="M388.972 140.231C388.972 137.417 390.487 135.901 393.302 135.901H445.328C448.143 135.901 449.658 137.417 449.658 140.231V144.452C449.658 147.266 448.143 148.782 445.328 148.782H427.036V205.463C427.036 208.277 425.521 209.792 422.706 209.792H415.924C413.109 209.792 411.594 208.277 411.594 205.463V148.782H393.302C390.487 148.782 388.972 147.266 388.972 144.452V140.231Z" fill="white"/>
<path d="M516.585 135.901C519.4 135.901 520.915 137.417 520.915 140.231V183.887C520.915 200.051 508.648 210.839 490.283 210.839C471.847 210.839 459.652 200.051 459.652 183.887V140.231C459.652 137.417 461.167 135.901 463.981 135.901H470.945C473.759 135.901 475.274 137.417 475.274 140.231V182.552C475.274 190.995 481.227 197.092 490.283 197.092C499.376 197.092 505.293 190.995 505.293 182.552V140.231C505.293 137.417 506.808 135.901 509.622 135.901H516.585Z" fill="white"/>
<path d="M538.098 209.792C535.284 209.792 533.768 208.277 533.768 205.463V140.231C533.768 137.417 535.284 135.901 538.098 135.901H560.179C582.476 135.901 596.114 149.756 596.114 172.775C596.114 195.866 582.476 209.792 559.962 209.792H538.098ZM549.391 196.407H559.313C573.203 196.407 580.527 189.263 580.527 172.775C580.527 156.358 573.203 149.287 559.349 149.287H549.391V196.407Z" fill="white"/>
<path d="M623.309 205.463C623.309 208.277 621.793 209.792 618.979 209.792H612.016C609.202 209.792 607.686 208.277 607.686 205.463V140.231C607.686 137.417 609.202 135.901 612.016 135.901H618.979C621.793 135.901 623.309 137.417 623.309 140.231V205.463Z" fill="white"/>
<path d="M704.064 172.847C704.064 197.02 689.055 210.802 669.464 210.802C649.764 210.802 634.863 196.912 634.863 172.847C634.863 148.674 649.764 134.891 669.464 134.891C689.055 134.891 704.064 148.674 704.064 172.847ZM650.702 172.847C650.702 188.505 658.098 196.984 669.464 196.984C680.792 196.984 688.225 188.505 688.225 172.847C688.225 157.188 680.792 148.71 669.464 148.71C658.098 148.71 650.702 157.188 650.702 172.847Z" fill="white"/>
<defs>
<filter id="filter0_d_22_72" x="0.700001" y="0.73418" width="252.775" height="222.37" filterUnits="userSpaceOnUse" color-interpolation-filters="sRGB">
<feFlood flood-opacity="0" result="BackgroundImageFix"/>
<feColorMatrix in="SourceAlpha" type="matrix" values="0 0 0 0 0 0 0 0 0 0 0 0 0 0 0 0 0 0 127 0" result="hardAlpha"/>
<feOffset/>
<feGaussianBlur stdDeviation="13.15"/>
<feComposite in2="hardAlpha" operator="out"/>
<feColorMatrix type="matrix" values="0 0 0 0 1 0 0 0 0 1 0 0 0 0 1 0 0 0 0.38 0"/>
<feBlend mode="normal" in2="BackgroundImageFix" result="effect1_dropShadow_22_72"/>
<feBlend mode="normal" in="SourceGraphic" in2="effect1_dropShadow_22_72" result="shape"/>
</filter>
</defs>
</svg>
